<svg width="50" height="43" viewBox="0 0 50 43" fill="none" xmlns="http://www.w3.org/2000/svg">
<path d="M49.0156 15.9883C49.0156 18.0586 48.6152 20.0117 47.8145 21.8477C47.0332 23.6641 45.959 25.2559 44.5918 26.623C43.2441 27.9707 41.6621 29.0352 39.8457 29.8164C38.0293 30.5977 36.0859 30.9883 34.0156 30.9883H9.9043V25.0703H34.0156C35.2656 25.0703 36.4375 24.8359 37.5312 24.3672C38.625 23.8789 39.5723 23.2246 40.373 22.4043C41.1934 21.584 41.8379 20.627 42.3066 19.5332C42.7754 18.4199 43.0098 17.2383 43.0098 15.9883C43.0098 14.7383 42.7754 13.5664 42.3066 12.4727C41.8379 11.3789 41.1934 10.4316 40.373 9.63086C39.5723 8.81055 38.625 8.16602 37.5312 7.69727C36.4375 7.22852 35.2656 6.99414 34.0156 6.99414H6.53516V43H0.529297V0.988281H34.0156C36.0859 0.988281 38.0293 1.38867 39.8457 2.18945C41.6621 2.9707 43.2441 4.04492 44.5918 5.41211C45.959 6.75977 47.0332 8.3418 47.8145 10.1582C48.6152 11.9746 49.0156 13.918 49.0156 15.9883Z" fill="#0A3D83"/>
</svg>
