<svg width="103" height="53" viewBox="0 0 103 53" fill="none" xmlns="http://www.w3.org/2000/svg">
<path d="M16.4382 28.06H13.4382V37.42L19.1382 38.68V43H0.418202V38.68L4.8582 37.42V6.52L0.418202 5.38V1.06L13.6182 0.759997H19.0782C22.3982 0.759997 25.1182 1.34 27.2382 2.5C29.3582 3.62 30.9182 5.18 31.9182 7.18C32.9582 9.14 33.4782 11.34 33.4782 13.78C33.4782 16.5 32.8582 18.94 31.6182 21.1C30.4182 23.22 28.5582 24.92 26.0382 26.2C23.5582 27.44 20.3582 28.06 16.4382 28.06ZM17.6982 6.88H13.4382V21.88H16.4982C19.1382 21.88 21.1582 21.16 22.5582 19.72C23.9982 18.28 24.7182 16.36 24.7182 13.96C24.7182 11.76 24.1182 10.04 22.9182 8.8C21.7582 7.52 20.0182 6.88 17.6982 6.88Z" fill="#0A3D83"/>
<path d="M43.2993 43.48C41.5126 43.48 40.0193 42.9067 38.8193 41.76C37.6193 40.6133 37.0193 38.8533 37.0193 36.48V25.44L34.3793 24.64V21.76L42.6193 21.48V35.56C42.6193 36.8133 42.8993 37.7467 43.4593 38.36C44.0193 38.9467 44.766 39.24 45.6993 39.24C46.366 39.24 47.086 39.08 47.8593 38.76C48.6593 38.4133 49.4593 37.8933 50.2593 37.2V25.44L47.6193 24.64V21.76L55.8593 21.48V39.28L58.5393 40.12V42.96L51.4993 43.28L50.8993 40.2C49.6726 41.32 48.3926 42.1467 47.0593 42.68C45.7526 43.2133 44.4993 43.48 43.2993 43.48ZM58.8937 52.68C58.467 52.68 58.0403 52.6533 57.6137 52.6C57.187 52.5733 56.7337 52.5067 56.2537 52.4L56.6537 48.44C57.2937 48.52 57.827 48.56 58.2537 48.56C59.5603 48.56 60.4937 48.2667 61.0537 47.68C61.6403 47.0933 61.9337 46.08 61.9337 44.64V25.4L59.2537 24.64V21.76L67.5337 21.48V42.96C67.5337 45.28 67.1737 47.1467 66.4537 48.56C65.7337 50 64.7203 51.04 63.4137 51.68C62.1337 52.3467 60.627 52.68 58.8937 52.68ZM64.3737 18.36C63.387 18.36 62.587 18.08 61.9737 17.52C61.387 16.96 61.0937 16.16 61.0937 15.12C61.0937 14 61.4003 13.1733 62.0137 12.64C62.6537 12.08 63.4537 11.8 64.4137 11.8C65.347 11.8 66.1203 12.08 66.7337 12.64C67.347 13.1733 67.6537 13.9867 67.6537 15.08C67.6537 16.1733 67.3337 17 66.6937 17.56C66.0803 18.0933 65.307 18.36 64.3737 18.36ZM81.7743 40.12V43H70.8143V40.12L73.4943 39.36V25.4L70.8143 24.64V21.76L79.0943 21.48V39.36L81.7743 40.12ZM76.1343 18.36C75.1476 18.36 74.3476 18.08 73.7343 17.52C73.1476 16.96 72.8543 16.16 72.8543 15.12C72.8543 14 73.161 13.1733 73.7743 12.64C74.4143 12.08 75.2143 11.8 76.1743 11.8C77.1076 11.8 77.881 12.08 78.4943 12.64C79.1076 13.1733 79.4143 13.9867 79.4143 15.08C79.4143 16.1733 79.0943 17 78.4543 17.56C77.841 18.0933 77.0676 18.36 76.1343 18.36ZM92.7887 43.48C89.882 43.48 87.522 42.5733 85.7087 40.76C83.922 38.92 83.0287 36.24 83.0287 32.72C83.0287 30.32 83.4553 28.2667 84.3087 26.56C85.1887 24.8267 86.4153 23.4933 87.9887 22.56C89.562 21.6267 91.4153 21.16 93.5487 21.16C95.6287 21.16 97.322 21.5733 98.6287 22.4C99.9353 23.2267 100.895 24.36 101.509 25.8C102.122 27.2133 102.429 28.8133 102.429 30.6C102.429 31.48 102.349 32.4133 102.189 33.4H88.8687C89.0287 35.16 89.5087 36.5867 90.3087 37.68C91.1353 38.7733 92.402 39.32 94.1087 39.32C94.9887 39.32 95.962 39.16 97.0287 38.84C98.0953 38.52 99.202 38.0133 100.349 37.32L102.229 40.32C100.682 41.3867 99.0953 42.1867 97.4687 42.72C95.8687 43.2267 94.3087 43.48 92.7887 43.48ZM93.1087 25.2C91.802 25.2 90.8153 25.6667 90.1487 26.6C89.482 27.5067 89.0687 28.6667 88.9087 30.08H96.6687C96.642 28.64 96.362 27.4667 95.8287 26.56C95.2953 25.6533 94.3887 25.2 93.1087 25.2Z" fill="#031E43"/>
</svg>
